<?xml version="1.0" encoding="UTF-8"?>
<svg xmlns="http://www.w3.org/2000/svg" xmlns:xlink="http://www.w3.org/1999/xlink" width="720px" height="1080px" viewBox="0 0 720 1080" version="1.1">
<defs>
<linearGradient id="linear0" gradientUnits="userSpaceOnUse" x1="-100" y1="1100" x2="900" y2="100" gradientTransform="matrix(0.9,0,0,0.9,0,0)">
<stop offset="0" style="stop-color:rgb(83.137255%,85.098039%,98.039216%);stop-opacity:1;"/>
<stop offset="0.998" style="stop-color:rgb(94.117647%,78.039216%,100%);stop-opacity:1;"/>
</linearGradient>
<linearGradient id="linear1" gradientUnits="userSpaceOnUse" x1="425.5979" y1="-51.4998" x2="1089.4521" y2="-51.4998" gradientTransform="matrix(0.9,0,0,0.9,0,0)">
<stop offset="0" style="stop-color:rgb(22.745098%,4.313725%,78.039216%);stop-opacity:1;"/>
<stop offset="1" style="stop-color:rgb(94.509804%,56.470588%,98.823529%);stop-opacity:1;"/>
</linearGradient>
<linearGradient id="linear2" gradientUnits="userSpaceOnUse" x1="314.5621" y1="-144.5771" x2="903.7843" y2="-144.5771" gradientTransform="matrix(0.9,0,0,0.9,0,0)">
<stop offset="0" style="stop-color:rgb(29.411765%,29.411765%,98.039216%);stop-opacity:1;"/>
<stop offset="1" style="stop-color:rgb(94.509804%,56.470588%,98.823529%);stop-opacity:1;"/>
</linearGradient>
<linearGradient id="linear3" gradientUnits="userSpaceOnUse" x1="711.9733" y1="217.4318" x2="763.2169" y2="217.4318" gradientTransform="matrix(0.9,0,0,0.9,0,0)">
<stop offset="0" style="stop-color:rgb(46.27451%,29.411765%,98.039216%);stop-opacity:1;"/>
<stop offset="1" style="stop-color:rgb(94.509804%,56.470588%,98.823529%);stop-opacity:1;"/>
</linearGradient>
<linearGradient id="linear4" gradientUnits="userSpaceOnUse" x1="322.3542" y1="66.9691" x2="373.5979" y2="66.9691" gradientTransform="matrix(0.9,0,0,0.9,0,0)">
<stop offset="0" style="stop-color:rgb(29.411765%,29.411765%,98.039216%);stop-opacity:1;"/>
<stop offset="1" style="stop-color:rgb(94.509804%,56.470588%,98.823529%);stop-opacity:1;"/>
</linearGradient>
<linearGradient id="linear5" gradientUnits="userSpaceOnUse" x1="-393.378" y1="863.7355" x2="195.8441" y2="863.7355" gradientTransform="matrix(0.9,0,0,0.9,0,0)">
<stop offset="0" style="stop-color:rgb(94.509804%,84.705882%,98.823529%);stop-opacity:1;"/>
<stop offset="1" style="stop-color:rgb(33.333333%,18.823529%,78.039216%);stop-opacity:1;"/>
</linearGradient>
<linearGradient id="linear6" gradientUnits="userSpaceOnUse" x1="-107.3088" y1="1261.0918" x2="421.5056" y2="1261.0918" gradientTransform="matrix(0.9,0,0,0.9,0,0)">
<stop offset="0" style="stop-color:rgb(94.509804%,56.470588%,98.823529%);stop-opacity:1;"/>
<stop offset="1" style="stop-color:rgb(46.27451%,29.411765%,98.039216%);stop-opacity:1;"/>
</linearGradient>
<linearGradient id="linear7" gradientUnits="userSpaceOnUse" x1="-424.4893" y1="1202.8936" x2="234.5271" y2="1202.8936" gradientTransform="matrix(0.9,0,0,0.9,0,0)">
<stop offset="0" style="stop-color:rgb(94.509804%,56.470588%,98.823529%);stop-opacity:1;"/>
<stop offset="1" style="stop-color:rgb(26.666667%,25.490196%,98.039216%);stop-opacity:1;"/>
</linearGradient>
<linearGradient id="linear8" gradientUnits="userSpaceOnUse" x1="107.1547" y1="971.7661" x2="158.3983" y2="971.7661" gradientTransform="matrix(0.9,0,0,0.9,0,0)">
<stop offset="0" style="stop-color:rgb(46.27451%,29.411765%,98.039216%);stop-opacity:1;"/>
<stop offset="1" style="stop-color:rgb(94.509804%,56.470588%,98.823529%);stop-opacity:1;"/>
</linearGradient>
<linearGradient id="linear9" gradientUnits="userSpaceOnUse" x1="7.7413" y1="664.0227" x2="58.985" y2="664.0227" gradientTransform="matrix(0.9,0,0,0.9,0,0)">
<stop offset="0" style="stop-color:rgb(29.411765%,29.411765%,98.039216%);stop-opacity:1;"/>
<stop offset="1" style="stop-color:rgb(94.509804%,56.470588%,98.823529%);stop-opacity:1;"/>
</linearGradient>
<linearGradient id="linear10" gradientUnits="userSpaceOnUse" x1="597.1092" y1="863.2417" x2="1260.9634" y2="863.2417" gradientTransform="matrix(0,0.9,0.9,0,-364.3695,364.3695)">
<stop offset="0" style="stop-color:rgb(22.745098%,32.156863%,78.039216%);stop-opacity:1;"/>
<stop offset="1" style="stop-color:rgb(94.509804%,56.470588%,98.823529%);stop-opacity:1;"/>
</linearGradient>
<linearGradient id="linear11" gradientUnits="userSpaceOnUse" x1="514.0267" y1="1102.2056" x2="565.2704" y2="1102.2056" gradientTransform="matrix(0.9,0,0,0.9,0,0)">
<stop offset="0" style="stop-color:rgb(46.27451%,29.411765%,98.039216%);stop-opacity:1;"/>
<stop offset="1" style="stop-color:rgb(94.509804%,56.470588%,98.823529%);stop-opacity:1;"/>
</linearGradient>
</defs>
<g id="surface1">
<rect x="0" y="0" width="720" height="1080" style="fill:url(#linear0);stroke:none;"/>
<path style=" stroke:none;fill-rule:nonzero;fill:url(#linear1);" d="M 973.835938 -137.835938 L 973.445312 -138.226562 C 964.546875 -147.121094 950.121094 -147.121094 941.222656 -138.222656 L 937.398438 -134.398438 C 928.5 -125.5 914.074219 -125.5 905.175781 -134.394531 L 904.785156 -134.785156 C 895.886719 -143.683594 881.460938 -143.683594 872.5625 -134.785156 L 838.066406 -100.289062 C 829.0625 -91.285156 814.460938 -91.285156 805.453125 -100.289062 C 796.449219 -109.296875 796.449219 -123.894531 805.453125 -132.902344 L 856.4375 -183.882812 C 865.335938 -192.78125 865.335938 -207.207031 856.4375 -216.101562 L 856.046875 -216.492188 C 847.148438 -225.390625 832.722656 -225.390625 823.824219 -216.492188 L 711.628906 -104.296875 C 702.621094 -95.292969 688.019531 -95.292969 679.015625 -104.296875 C 670.011719 -113.304688 670.011719 -127.902344 679.015625 -136.910156 L 791.210938 -249.105469 C 800.109375 -258.003906 800.109375 -272.429688 791.210938 -281.324219 L 790.820312 -281.714844 C 781.921875 -290.613281 767.496094 -290.613281 758.597656 -281.714844 L 501.792969 -24.90625 C 492.789062 -15.902344 492.789062 -1.300781 501.792969 7.703125 C 510.796875 16.710938 510.796875 31.308594 501.792969 40.316406 L 389.792969 152.316406 C 380.785156 161.320312 380.785156 175.921875 389.792969 184.925781 C 398.796875 193.933594 413.398438 193.933594 422.402344 184.925781 L 534.40625 72.925781 C 543.410156 63.921875 558.011719 63.921875 567.015625 72.925781 C 576.023438 81.929688 576.023438 96.53125 567.015625 105.539062 L 516.230469 156.324219 C 507.226562 165.328125 507.226562 179.929688 516.230469 188.933594 C 525.234375 197.941406 539.835938 197.941406 548.839844 188.933594 L 583.144531 154.632812 C 592.148438 145.628906 606.75 145.628906 615.753906 154.632812 C 624.761719 163.636719 639.363281 163.636719 648.367188 154.632812 L 651.804688 151.195312 C 660.8125 142.1875 675.410156 142.1875 684.417969 151.195312 C 693.421875 160.199219 708.023438 160.199219 717.027344 151.195312 L 973.835938 -105.613281 C 982.730469 -114.511719 982.730469 -128.9375 973.835938 -137.835938 Z M 973.835938 -137.835938 "/>
<path style=" stroke:none;fill-rule:nonzero;fill:url(#linear2);" d="M 548.253906 -55.054688 C 557.0625 -46.25 557.0625 -31.972656 548.253906 -23.167969 L 481.039062 44.046875 C 472.234375 52.851562 472.234375 67.128906 481.039062 75.933594 C 489.847656 84.742188 489.847656 99.015625 481.039062 107.824219 L 466.941406 121.925781 C 458.132812 130.730469 458.132812 145.007812 466.941406 153.8125 C 475.746094 162.617188 490.023438 162.617188 498.828125 153.8125 L 725.488281 -72.84375 C 734.292969 -81.652344 734.292969 -95.925781 725.488281 -104.734375 C 716.679688 -113.539062 716.679688 -127.816406 725.488281 -136.621094 L 739.585938 -150.722656 C 748.390625 -159.527344 748.390625 -173.804688 739.585938 -182.609375 C 730.78125 -191.417969 730.78125 -205.691406 739.585938 -214.5 L 806.800781 -281.714844 C 815.605469 -290.519531 815.605469 -304.796875 806.800781 -313.601562 C 797.996094 -322.40625 783.71875 -322.40625 774.914062 -313.601562 L 737.195312 -275.882812 C 728.390625 -267.078125 714.113281 -267.078125 705.304688 -275.882812 C 696.5 -284.6875 682.222656 -284.6875 673.417969 -275.882812 L 624.238281 -226.707031 C 615.433594 -217.902344 601.15625 -217.902344 592.351562 -226.707031 C 583.546875 -235.511719 583.546875 -249.789062 592.351562 -258.59375 L 612.03125 -278.277344 C 620.839844 -287.082031 620.839844 -301.359375 612.03125 -310.164062 C 603.226562 -318.972656 603.226562 -333.246094 612.03125 -342.054688 L 652.140625 -382.164062 C 660.949219 -390.96875 660.949219 -405.246094 652.140625 -414.050781 C 643.335938 -422.859375 629.058594 -422.859375 620.253906 -414.050781 L 580.144531 -373.941406 C 571.339844 -365.136719 557.0625 -365.136719 548.253906 -373.941406 C 539.449219 -382.75 525.171875 -382.75 516.367188 -373.941406 L 289.710938 -147.285156 C 280.90625 -138.476562 280.90625 -124.203125 289.710938 -115.394531 C 298.515625 -106.589844 312.792969 -106.589844 321.597656 -115.394531 L 361.707031 -155.503906 C 370.511719 -164.3125 384.789062 -164.3125 393.597656 -155.503906 C 402.402344 -146.699219 402.402344 -132.421875 393.597656 -123.617188 L 353.488281 -83.507812 C 344.679688 -74.703125 344.679688 -60.425781 353.488281 -51.617188 C 362.292969 -42.8125 362.292969 -28.535156 353.488281 -19.730469 L 333.804688 -0.0507812 C 325 8.757812 325 23.03125 333.804688 31.839844 C 342.609375 40.644531 356.886719 40.644531 365.695312 31.839844 L 414.871094 -17.339844 C 423.675781 -26.144531 437.953125 -26.144531 446.757812 -17.339844 C 455.566406 -8.53125 469.839844 -8.53125 478.648438 -17.339844 L 516.363281 -55.054688 C 525.171875 -63.863281 539.449219 -63.863281 548.253906 -55.054688 Z M 548.253906 -55.054688 "/>
<path style=" stroke:none;fill-rule:nonzero;fill:url(#linear3);" d="M 686.894531 195.6875 C 686.894531 208.425781 676.570312 218.75 663.835938 218.75 C 651.101562 218.75 640.777344 208.425781 640.777344 195.6875 C 640.777344 182.953125 651.101562 172.628906 663.835938 172.628906 C 676.570312 172.628906 686.894531 182.953125 686.894531 195.6875 Z M 686.894531 195.6875 "/>
<path style=" stroke:none;fill-rule:nonzero;fill:url(#linear4);" d="M 336.238281 60.273438 C 336.238281 73.007812 325.914062 83.332031 313.179688 83.332031 C 300.441406 83.332031 290.117188 73.007812 290.117188 60.273438 C 290.117188 47.535156 300.441406 37.210938 313.179688 37.210938 C 325.914062 37.210938 336.238281 47.535156 336.238281 60.273438 Z M 336.238281 60.273438 "/>
<path style=" stroke:none;fill-rule:nonzero;fill:url(#linear5);" d="M -148.65625 852.425781 C -139.851562 861.230469 -139.851562 875.507812 -148.65625 884.3125 L -215.871094 951.527344 C -224.679688 960.332031 -224.679688 974.609375 -215.871094 983.417969 C -207.066406 992.222656 -207.066406 1006.5 -215.871094 1015.304688 L -229.972656 1029.40625 C -238.777344 1038.210938 -238.777344 1052.488281 -229.972656 1061.292969 C -221.167969 1070.101562 -206.890625 1070.101562 -198.082031 1061.292969 L 28.574219 834.636719 C 37.378906 825.832031 37.378906 811.554688 28.574219 802.746094 C 19.769531 793.941406 19.769531 779.664062 28.574219 770.859375 L 42.671875 756.757812 C 51.480469 747.953125 51.480469 733.675781 42.671875 724.871094 C 33.867188 716.0625 33.867188 701.789062 42.671875 692.980469 L 109.886719 625.765625 C 118.695312 616.960938 118.695312 602.683594 109.886719 593.878906 C 101.082031 585.074219 86.804688 585.074219 78 593.878906 L 40.28125 631.597656 C 31.476562 640.402344 17.199219 640.402344 8.394531 631.597656 C -0.410156 622.792969 -14.6875 622.792969 -23.496094 631.597656 L -72.671875 680.773438 C -81.476562 689.582031 -95.753906 689.582031 -104.558594 680.773438 C -113.367188 671.96875 -113.367188 657.691406 -104.558594 648.886719 L -84.878906 629.207031 C -76.074219 620.402344 -76.074219 606.125 -84.878906 597.316406 C -93.683594 588.511719 -93.683594 574.234375 -84.878906 565.429688 L -44.769531 525.320312 C -35.964844 516.511719 -35.964844 502.238281 -44.769531 493.429688 C -53.574219 484.625 -67.851562 484.625 -76.660156 493.429688 L -116.769531 533.539062 C -125.574219 542.34375 -139.851562 542.34375 -148.65625 533.539062 C -157.460938 524.734375 -171.738281 524.734375 -180.546875 533.539062 L -407.203125 760.195312 C -416.007812 769.003906 -416.007812 783.277344 -407.203125 792.085938 C -398.398438 800.890625 -384.121094 800.890625 -375.3125 792.085938 L -335.203125 751.976562 C -326.398438 743.171875 -312.121094 743.171875 -303.316406 751.976562 C -294.511719 760.78125 -294.511719 775.058594 -303.316406 783.863281 L -343.425781 823.972656 C -352.230469 832.78125 -352.230469 847.054688 -343.425781 855.863281 C -334.621094 864.667969 -334.621094 878.945312 -343.425781 887.75 L -363.105469 907.433594 C -371.914062 916.238281 -371.914062 930.515625 -363.105469 939.320312 C -354.300781 948.128906 -340.023438 948.128906 -331.21875 939.320312 L -282.039062 890.144531 C -273.234375 881.339844 -258.957031 881.339844 -250.152344 890.144531 C -241.347656 898.949219 -227.070312 898.949219 -218.261719 890.144531 L -180.542969 852.425781 C -171.738281 843.617188 -157.464844 843.617188 -148.65625 852.425781 Z M -148.65625 852.425781 "/>
<path style=" stroke:none;fill-rule:nonzero;fill:url(#linear6);" d="M 27.117188 1347.992188 L 50.652344 1324.457031 C 59.65625 1315.453125 74.257812 1315.453125 83.261719 1324.457031 C 92.269531 1333.464844 106.867188 1333.464844 115.875 1324.457031 L 372.683594 1067.648438 C 381.582031 1058.753906 381.582031 1044.328125 372.683594 1035.429688 L 372.292969 1035.039062 C 363.394531 1026.140625 348.96875 1026.140625 340.070312 1035.039062 L 316.34375 1058.765625 C 307.339844 1067.773438 292.738281 1067.773438 283.730469 1058.765625 C 274.726562 1049.761719 274.726562 1035.160156 283.730469 1026.15625 L 290.550781 1019.335938 C 299.449219 1010.4375 299.449219 996.011719 290.550781 987.117188 L 290.160156 986.726562 C 281.261719 977.828125 281.261719 963.402344 290.160156 954.503906 C 299.058594 945.605469 299.058594 931.179688 290.160156 922.28125 L 289.769531 921.890625 C 280.871094 912.996094 266.445312 912.996094 257.546875 921.890625 L 231.816406 947.625 C 222.917969 956.523438 208.492188 956.523438 199.59375 947.625 L 199.203125 947.234375 C 190.308594 938.335938 175.878906 938.335938 166.984375 947.234375 L -89.824219 1204.042969 C -98.828125 1213.046875 -98.828125 1227.648438 -89.824219 1236.65625 C -80.820312 1245.660156 -66.21875 1245.660156 -57.214844 1236.65625 L -31.480469 1210.921875 C -22.691406 1202.132812 -8.4375 1202.132812 0.351562 1210.921875 L 1.128906 1211.703125 C 9.917969 1220.492188 9.917969 1234.746094 1.128906 1243.535156 C -7.875 1252.539062 -7.875 1267.140625 1.128906 1276.144531 C 10.136719 1285.148438 10.136719 1299.75 1.128906 1308.753906 L -5.492188 1315.378906 C -14.5 1324.382812 -14.5 1338.984375 -5.492188 1347.992188 C 3.511719 1356.996094 18.113281 1356.996094 27.117188 1347.992188 Z M 27.117188 1347.992188 "/>
<path style=" stroke:none;fill-rule:nonzero;fill:url(#linear7);" d="M -249.445312 1146.433594 L -375.285156 1272.273438 C -384.292969 1281.277344 -384.292969 1295.878906 -375.285156 1304.882812 C -366.28125 1313.886719 -351.679688 1313.886719 -342.675781 1304.882812 L -292.535156 1254.746094 C -283.53125 1245.738281 -268.929688 1245.738281 -259.925781 1254.746094 C -250.921875 1263.75 -250.921875 1278.351562 -259.925781 1287.355469 L -330.449219 1357.878906 C -339.453125 1366.882812 -339.453125 1381.484375 -330.449219 1390.488281 C -321.441406 1399.496094 -306.839844 1399.496094 -297.835938 1390.488281 L -283.238281 1375.890625 C -274.230469 1366.886719 -259.632812 1366.886719 -250.625 1375.890625 C -241.621094 1384.898438 -227.019531 1384.898438 -218.015625 1375.890625 L -186.980469 1344.859375 C -177.976562 1335.851562 -163.375 1335.851562 -154.367188 1344.859375 L -153.578125 1345.648438 C -145.011719 1354.21875 -145.011719 1368.113281 -153.578125 1376.679688 C -162.585938 1385.6875 -162.585938 1400.285156 -153.578125 1409.292969 C -144.574219 1418.296875 -129.972656 1418.296875 -120.96875 1409.292969 L 204.488281 1083.835938 C 213.273438 1075.050781 213.273438 1060.800781 204.488281 1052.015625 L 203.699219 1051.226562 C 194.910156 1042.4375 194.910156 1028.191406 203.699219 1019.402344 C 212.484375 1010.617188 212.484375 996.367188 203.699219 987.582031 L 202.910156 986.792969 C 194.121094 978.003906 179.875 978.003906 171.085938 986.792969 L 139.265625 1018.613281 C 130.476562 1027.402344 116.230469 1027.402344 107.441406 1018.613281 L 106.652344 1017.824219 C 97.863281 1009.035156 83.617188 1009.035156 74.832031 1017.824219 L 59.835938 1032.816406 C 50.832031 1041.824219 36.230469 1041.824219 27.226562 1032.816406 C 18.21875 1023.8125 18.21875 1009.210938 27.226562 1000.207031 L 98.144531 929.289062 C 106.929688 920.5 106.929688 906.253906 98.144531 897.464844 L 97.355469 896.675781 C 88.566406 887.890625 74.320312 887.890625 65.53125 896.675781 L 15 947.210938 C 5.992188 956.214844 -8.605469 956.214844 -17.613281 947.210938 C -26.617188 938.203125 -26.617188 923.601562 -17.613281 914.597656 L 108.621094 788.363281 C 117.410156 779.578125 117.410156 765.328125 108.621094 756.542969 L 107.832031 755.753906 C 99.046875 746.964844 84.796875 746.964844 76.011719 755.753906 L -249.445312 1081.207031 C -258.449219 1090.214844 -258.449219 1104.8125 -249.445312 1113.820312 C -240.441406 1122.824219 -240.441406 1137.425781 -249.445312 1146.433594 Z M -249.445312 1146.433594 "/>
<path style=" stroke:none;fill-rule:nonzero;fill:url(#linear8);" d="M 142.558594 874.589844 C 142.558594 887.324219 132.234375 897.648438 119.5 897.648438 C 106.761719 897.648438 96.4375 887.324219 96.4375 874.589844 C 96.4375 861.855469 106.761719 851.53125 119.5 851.53125 C 132.234375 851.53125 142.558594 861.855469 142.558594 874.589844 Z M 142.558594 874.589844 "/>
<path style=" stroke:none;fill-rule:nonzero;fill:url(#linear9);" d="M 53.085938 597.621094 C 53.085938 610.355469 42.761719 620.679688 30.027344 620.679688 C 17.292969 620.679688 6.96875 610.355469 6.96875 597.621094 C 6.96875 584.886719 17.292969 574.5625 30.027344 574.5625 C 42.761719 574.5625 53.085938 584.886719 53.085938 597.621094 Z M 53.085938 597.621094 "/>
<path style=" stroke:none;fill-rule:nonzero;fill:url(#linear10);" d="M 321.0625 1492.5625 L 320.671875 1492.171875 C 311.777344 1483.273438 311.777344 1468.847656 320.675781 1459.953125 L 324.5 1456.125 C 333.398438 1447.226562 333.398438 1432.800781 324.5 1423.90625 L 324.109375 1423.515625 C 315.214844 1414.613281 315.214844 1400.1875 324.113281 1391.292969 L 358.609375 1356.796875 C 367.613281 1347.789062 367.613281 1333.191406 358.609375 1324.183594 C 349.601562 1315.179688 335 1315.179688 325.996094 1324.183594 L 275.015625 1375.167969 C 266.117188 1384.0625 251.691406 1384.0625 242.792969 1375.164062 L 242.402344 1374.773438 C 233.507812 1365.875 233.507812 1351.449219 242.402344 1342.554688 L 354.597656 1230.359375 C 363.605469 1221.351562 363.605469 1206.753906 354.597656 1197.746094 C 345.59375 1188.742188 330.992188 1188.742188 321.988281 1197.746094 L 209.792969 1309.941406 C 200.894531 1318.839844 186.46875 1318.839844 177.570312 1309.941406 L 177.179688 1309.550781 C 168.28125 1300.652344 168.285156 1286.226562 177.179688 1277.332031 L 433.988281 1020.523438 C 442.992188 1011.515625 457.59375 1011.515625 466.597656 1020.523438 C 475.605469 1029.527344 490.207031 1029.527344 499.210938 1020.523438 L 611.210938 908.523438 C 620.21875 899.515625 634.816406 899.515625 643.824219 908.523438 C 652.828125 917.527344 652.828125 932.128906 643.824219 941.132812 L 531.824219 1053.136719 C 522.816406 1062.140625 522.816406 1076.742188 531.824219 1085.746094 C 540.828125 1094.75 555.429688 1094.75 564.433594 1085.746094 L 615.21875 1034.960938 C 624.226562 1025.953125 638.828125 1025.953125 647.832031 1034.960938 C 656.835938 1043.964844 656.835938 1058.566406 647.832031 1067.570312 L 613.527344 1101.875 C 604.523438 1110.878906 604.523438 1125.480469 613.527344 1134.484375 C 622.535156 1143.492188 622.535156 1158.09375 613.527344 1167.097656 L 610.089844 1170.535156 C 601.085938 1179.539062 601.085938 1194.140625 610.089844 1203.148438 C 619.097656 1212.152344 619.097656 1226.753906 610.089844 1235.757812 L 353.285156 1492.566406 C 344.386719 1501.460938 329.960938 1501.460938 321.0625 1492.5625 Z M 321.0625 1492.5625 "/>
<path style=" stroke:none;fill-rule:nonzero;fill:url(#linear11);" d="M 508.742188 991.984375 C 508.742188 1004.722656 498.417969 1015.046875 485.683594 1015.046875 C 472.949219 1015.046875 462.625 1004.722656 462.625 991.984375 C 462.625 979.25 472.949219 968.925781 485.683594 968.925781 C 498.417969 968.925781 508.742188 979.25 508.742188 991.984375 Z M 508.742188 991.984375 "/>
</g>
</svg>
